<svg width="30" height="31" viewBox="0 0 30 31" fill="none" xmlns="http://www.w3.org/2000/svg">
<rect y="0.5" width="30" height="30" rx="5" fill="#F79788"/>
<path d="M24 16.1C23.9 16.1 23.7 16.2 23.6 16.3L22.6 17.3L24.7 19.4L25.7 18.4C25.9 18.2 25.9 17.8 25.7 17.6L24.4 16.3C24.3 16.2 24.2 16.1 24 16.1ZM22.1 17.9L16 23.9V26H18.1L24.2 19.9L22.1 17.9ZM24 6H16V12H24V6ZM22 10H18V8H22V10ZM16 21.06V14H24V14.1C23.24 14.1 22.57 14.5 22.19 14.89L21.07 16H18V19.07L16 21.06ZM14 6H6V16H14V6ZM12 14H8V8H12V14ZM14 23.06V18H6V24H14V23.06ZM12 22H8V20H12V22Z" fill="#37545F"/>
</svg>
