<?xml version="1.0" encoding="utf-8"?>
<!-- Generator: Adobe Illustrator 24.3.0, SVG Export Plug-In . SVG Version: 6.00 Build 0)  -->
<svg version="1.1" id="Слой_1" xmlns="http://www.w3.org/2000/svg" xmlns:xlink="http://www.w3.org/1999/xlink" x="0px" y="0px"
	 viewBox="0 0 87.5 100" style="enable-background:new 0 0 87.5 100;" xml:space="preserve">
<style type="text/css">
	.st0{fill:#4DB799;}
</style>
<g>
	<path class="st0" d="M45.64,100c-2.04-1.15-4.16-2.05-6.45-2.69c-4.5-1.25-8.22-3.98-11.64-7.05C16.37,80.23,8.03,68.19,2.66,54.14
		c-1.78-4.66-2.76-9.48-2.65-14.52c0.12-5.79-0.03-11.59,0.06-17.39c0.07-4.14,0.68-8.21,2.25-12.09
		C5.43,2.46,12.47-0.75,19.98,0.19c5.87,0.74,11.31,2.66,16.06,6.28c0.91,0.69,1.74,1.49,2.54,2.3c0.32,0.33,0.66,0.81,0.68,1.23
		c0.02,0.72,0.01,1.66-0.41,2.09c-0.35,0.36-1.4,0.36-1.98,0.12c-2.56-1.05-5.04-2.3-7.59-3.35c-3.18-1.31-6.45-2.36-9.93-2.4
		c-5.24-0.07-8.31,2.27-9.4,7.39c-0.48,2.24-0.49,4.59-0.73,6.99c7.48-2.37,14.71-2.75,21.99-0.28c0.59-0.79,1.13-1.64,1.81-2.36
		c1.73-1.83,3.56-1.81,5.31-0.01c1.53,1.57,2.39,3.35,2.36,5.66c-0.09,7.77-0.04,15.55-0.03,23.33c0,3.6,1.43,5.38,4.97,5.82
		c3.7,0.46,5.51-0.49,7.48-2.96c0.19,0.25,0.39,0.48,0.55,0.73c1.75,2.62,3.52,5.24,5.24,7.88c0.34,0.52,0.68,0.77,1.33,0.75
		c1.56-0.05,3.12,0,4.68-0.03c0.32-0.01,0.73-0.08,0.93-0.29c2.2-2.25,4.37-4.54,6.68-6.94c-4.31-0.68-7.68-2.68-10.13-6.22
		c0.36,0.14,0.74,0.25,1.09,0.41c2.5,1.16,5.1,1.92,7.88,2.04c4.29,0.18,7.57-1.55,9.96-5.09c1.93-2.86,3.06-5.95,3.08-9.43
		c0-0.51,0.04-1.1,0.29-1.51c0.27-0.45,0.8-0.99,1.23-1.01c0.43-0.01,0.89,0.57,1.29,0.94c0.16,0.15,0.2,0.43,0.29,0.65
		c0,2.5,0,5,0,7.5c-0.35,1.26-0.62,2.55-1.06,3.78c-1.43,4-3.93,6.95-8.3,7.75c-0.97,0.18-1.53,0.63-2.1,1.3
		C72.8,57.14,69.52,61,66.28,64.9c-0.44,0.52-0.88,0.75-1.58,0.75c-3.57-0.04-7.15,0.01-10.72-0.05c-0.51-0.01-1.14-0.27-1.51-0.62
		c-1.87-1.79-3.68-3.66-5.59-5.58c-1.94,1.95-3.78,3.83-5.67,5.65c-0.33,0.32-0.89,0.55-1.34,0.55c-3.05,0.05-6.11,0.03-9.16,0.03
		c-0.75,0-1.49,0-2.24,0c0.66,0.78,1.38,1.36,2.16,1.84c7.33,4.53,15.33,5,23.59,3.89c2.45-0.33,4.65-1.31,6.77-2.52
		c1.46-0.83,3.03-1.17,4.7-0.94c0.38,0.05,0.96,0.27,1.02,0.51c0.08,0.34-0.14,0.88-0.41,1.16c-0.64,0.67-1.36,1.29-2.1,1.85
		c-4.24,3.22-8.9,5.57-14.11,6.76c0,4.15,0,8.26,0,12.42c2.77-0.33,5.05-1.64,7.21-3.16C62.6,83.72,67,79.04,70.75,73.8
		c2.78-3.88,5.18-8.03,7.78-12.05c0.47-0.72,0.97-1.44,1.56-2.06c0.23-0.24,0.79-0.35,1.13-0.25c0.23,0.07,0.48,0.59,0.46,0.9
		c-0.06,0.99-0.03,2.06-0.39,2.96C77.14,73.86,71.2,83.26,62.83,91.02c-2.76,2.56-5.69,4.85-9.19,6.35
		c-1.92,0.82-3.8,1.75-5.71,2.63C47.17,100,46.41,100,45.64,100z M9.45,23.48c0,5.18-0.04,10.42,0.03,15.65
		c0.02,1.37,0.27,2.76,0.57,4.11c0.78,3.48,2.77,5.82,6.43,6.51c2.34,0.44,4.63,0.23,6.89-0.4c4.83-1.34,8.36-4.13,9.7-9.15
		c0.46-1.73,0.78-3.52,1.03-5.3c0.41-2.92,0.81-5.85,0.12-8.79c-0.41-1.76-1.36-2.29-3.04-1.68c-4.56,1.64-9.23,2.21-14,1.17
		C14.6,25.04,12.07,24.21,9.45,23.48z M43.72,78.11c-5.66-0.34-10.59-2.58-15.39-5.57c-0.1,4.58,1.17,8.43,4.06,11.68
		c3.02,3.4,6.94,5.22,11.33,6.34C43.72,86.38,43.72,82.33,43.72,78.11z"/>
	<path class="st0" d="M86.61,7.39c-3.88-2.31-8.18-2.93-12.55-3.2c-6.72-0.42-12.21,2.2-16.8,6.94c-1.44,1.48-3.27,1.83-4.65,0.8
		c-1.2-0.9-1.58-2.05-0.7-3.24c0.97-1.32,2.12-2.58,3.43-3.56c3.91-2.94,8.43-4.37,13.26-4.93C72.4-0.24,76.12,0,79.7,1.5
		C82.61,2.72,85.02,4.57,86.61,7.39z"/>
	<path class="st0" d="M82.78,22.47c-7.96,4.73-18.73,4.93-27.08,0.08C62.66,18.22,73.45,17.25,82.78,22.47z"/>
</g>
</svg>
