<?xml version="1.0" encoding="utf-8"?>
<!-- Generator: Adobe Illustrator 24.3.0, SVG Export Plug-In . SVG Version: 6.00 Build 0)  -->
<svg version="1.1" id="Слой_1" xmlns="http://www.w3.org/2000/svg" xmlns:xlink="http://www.w3.org/1999/xlink" x="0px" y="0px"
	 viewBox="0 0 107.18 100" style="enable-background:new 0 0 107.18 100;" xml:space="preserve">
<style type="text/css">
	.st0{fill:#4DB799;}
</style>
<g>
	<path class="st0" d="M107.18,46.45c-0.28,1.7-0.52,3.42-0.85,5.11c-0.83,4.26-2.34,8.28-4.41,12.09c-0.49,0.91-1.22,1.46-2.28,1.31
		c-0.95-0.13-1.66-0.72-1.75-1.68c-0.06-0.6,0.15-1.31,0.44-1.86c2.23-4.26,3.71-8.74,4.31-13.52c1.12-8.99-0.62-17.4-5.38-25.08
		C91.01,12.78,81.94,6.76,70.28,4.71c-1.88-0.33-3.81-0.45-5.72-0.46C57.27,4.2,49.98,4.21,42.69,4.24
		C24.25,4.31,8.1,17.87,4.84,35.99c-3.58,19.91,8.4,38.93,27.93,44.37c2.08,0.58,2.4,1,2.4,3.14c0,2.99,0,5.99,0,9.23
		c0.39-0.36,0.66-0.59,0.91-0.84c2.99-2.98,5.99-5.94,8.94-8.95c0.81-0.83,1.67-1.22,2.86-1.2c5.37,0.05,10.75,0.03,16.12,0.02
		c7.83-0.02,15.04-2.14,21.59-6.46c0.29-0.19,0.58-0.39,0.9-0.53c1.01-0.44,2.19-0.03,2.7,0.92c0.53,0.98,0.24,2.11-0.79,2.82
		c-3.32,2.28-6.9,4.05-10.72,5.31c-4.54,1.5-9.19,2.19-13.97,2.15c-4.88-0.04-9.77,0.01-14.65-0.02c-0.72,0-1.23,0.19-1.74,0.7
		c-4.13,4.16-8.28,8.29-12.42,12.42c-0.96,0.96-1.99,1.18-2.9,0.62c-0.75-0.46-1.01-1.16-1.01-2.04c0.02-4.14-0.01-8.29,0.03-12.43
		c0.01-0.7-0.19-0.99-0.88-1.23C14.63,78.62,4.84,68.01,0.94,52.09C0.49,50.24,0.31,48.33,0,46.45c0-2.23,0-4.46,0-6.69
		c0.15-1.13,0.28-2.26,0.47-3.39C2.41,25.06,7.87,15.8,17,8.8c7.25-5.55,15.5-8.56,24.66-8.73c7.6-0.14,15.2-0.05,22.8-0.06
		c3.78-0.01,7.52,0.42,11.13,1.54c16.57,5.15,26.88,16.16,30.75,33.08c0.39,1.68,0.56,3.41,0.83,5.12
		C107.18,41.99,107.18,44.22,107.18,46.45z"/>
	<path class="st0" d="M26.29,50.87c1.39,0,2.77-0.01,4.16,0c1.56,0.02,2.56,0.88,2.53,2.17c-0.02,1.25-0.98,2.08-2.5,2.09
		c-3.1,0.02-6.21,0.01-9.31,0.01c-1.02,0-1.87-0.34-2.28-1.34c-0.41-1-0.04-1.81,0.69-2.54c2.08-2.06,4.16-4.12,6.21-6.21
		c1.95-1.97,2.97-4.34,2.91-7.13c-0.03-1.55-1.17-2.72-2.68-2.78c-1.6-0.07-2.82,0.96-3.02,2.54c-0.03,0.21-0.04,0.42-0.08,0.62
		c-0.27,1.18-1.27,1.95-2.33,1.79c-1.13-0.16-1.89-1.08-1.89-2.27c0.01-3.65,3.03-6.69,6.88-6.94c3.49-0.22,6.88,2.52,7.27,6.01
		c0.48,4.28-1.02,7.92-3.93,11.02c-0.88,0.94-1.86,1.78-2.79,2.66C26.19,50.68,26.24,50.77,26.29,50.87z"/>
	<path class="st0" d="M53.75,40.75c1.82,0.34,2.51,0.93,2.57,2.1c0.06,1.32-0.53,1.89-2.57,2.42c0,2.27,0,4.56,0,6.85
		c0,1.96-0.73,2.99-2.12,3c-1.41,0.02-2.17-1.02-2.17-2.95c0-2.29,0-4.58,0-7.03c-0.45,0-0.81,0-1.18,0c-2.3,0-4.6,0.01-6.9,0
		c-1.83-0.01-2.62-0.81-2.63-2.61c0-3.13-0.01-6.26,0-9.4c0-1.05,0.48-1.82,1.5-2.13c0.98-0.3,1.84,0,2.36,0.86
		c0.25,0.42,0.33,0.99,0.34,1.49c0.04,2.12,0.01,4.25,0.02,6.37c0,0.34,0.03,0.68,0.05,1.07c2.15,0,4.22,0,6.44,0
		c0-0.98,0-1.94,0-2.91c0-1.57-0.03-3.13,0.01-4.7c0.03-1.37,0.88-2.26,2.08-2.3c1.23-0.04,2.16,0.88,2.19,2.29
		c0.05,2.09,0.01,4.18,0.01,6.26C53.75,39.86,53.75,40.27,53.75,40.75z"/>
	<path class="st0" d="M82.87,35.13c-2.17,0-4.19,0.01-6.2,0c-1.3-0.01-2.11-0.58-2.37-1.62c-0.31-1.2,0.39-2.36,1.66-2.54
		c0.92-0.13,1.88-0.1,2.82-0.1c2.41-0.01,4.81-0.03,7.22,0c2.09,0.03,3.02,1.53,2.09,3.4c-3.23,6.47-6.48,12.93-9.72,19.39
		c-0.58,1.16-1.36,1.6-2.39,1.41c-1.02-0.19-1.64-0.84-1.7-1.83c-0.03-0.55,0.19-1.16,0.45-1.67c2.53-5.11,5.08-10.2,7.63-15.3
		C82.5,35.93,82.65,35.59,82.87,35.13z"/>
	<path class="st0" d="M61.23,58.49c-1.4,0.03-2.43-1.29-2.05-2.73c1.36-5.17,2.75-10.33,4.13-15.49c0.96-3.59,1.91-7.17,2.88-10.76
		c0.42-1.55,1.45-2.27,2.7-1.92c1.22,0.34,1.82,1.37,1.47,2.67c-1.57,5.94-3.17,11.87-4.76,17.8c-0.75,2.82-1.49,5.64-2.26,8.45
		C63.02,57.79,62.26,58.47,61.23,58.49z"/>
	<path class="st0" d="M96.5,70.46c0.02,1.22-0.85,2.11-2.06,2.12c-1.21,0.01-2.12-0.89-2.12-2.08c0-1.12,0.91-2.06,2.03-2.1
		C95.53,68.36,96.48,69.27,96.5,70.46z"/>
</g>
</svg>
