<?xml version="1.0" encoding="utf-8"?>
<!-- Generator: Adobe Illustrator 24.3.0, SVG Export Plug-In . SVG Version: 6.00 Build 0)  -->
<svg version="1.1" id="Слой_1" xmlns="http://www.w3.org/2000/svg" xmlns:xlink="http://www.w3.org/1999/xlink" x="0px" y="0px"
	 viewBox="0 0 97.31 100" style="enable-background:new 0 0 97.31 100;" xml:space="preserve">
<style type="text/css">
	.st0{fill:#4DB799;}
</style>
<g>
	<path class="st0" d="M75.99,0c1.42,0.31,2.88,0.5,4.26,0.93c9.29,2.89,15.06,9.2,16.7,18.7c2.29,13.24-6.66,25.24-19.7,27.15
		c-13.02,1.9-24.8-6.97-26.76-19.98c-0.49-3.22-0.24-6.41,0.66-9.54c0.11-0.37,0.19-0.75,0.28-1.13
		c-12.85-1.77-30.06,6.84-34.96,24.09c0.31-0.15,0.55-0.26,0.78-0.39c2.05-1.19,4.09-2.39,6.14-3.59c1.67-0.97,3.24-0.7,4.09,0.7
		c0.84,1.38,0.32,2.97-1.31,3.93c-4.09,2.41-8.17,4.81-12.27,7.2c-1.79,1.05-3.22,0.68-4.27-1.11c-2.43-4.11-4.86-8.22-7.22-12.37
		c-0.35-0.61-0.53-1.42-0.47-2.11c0.1-1.15,1.08-2.03,2.19-2.19c1.22-0.17,2.17,0.33,2.79,1.37c1.22,2.03,2.41,4.08,3.61,6.13
		c0.16,0.28,0.33,0.55,0.58,0.96c0.17-0.41,0.32-0.71,0.43-1.02c4.26-12.42,12.57-20.87,24.94-25.25c5.4-1.91,10.99-2.52,16.7-1.77
		c0.58,0.08,0.95-0.06,1.3-0.56c3.18-4.61,7.49-7.69,12.86-9.24C68.7,0.52,70.11,0.3,71.5,0C73,0,74.49,0,75.99,0z M91.91,23.6
		c0.03-10.31-8.44-18.41-18.49-18.17c-10.17,0.24-18.05,8.46-17.69,18.84c0.33,9.6,8.36,17.94,19.3,17.31
		C84.54,41.01,91.84,33.15,91.91,23.6z"/>
	<path class="st0" d="M46.06,83.7c14.91,2.06,31.28-8.45,35.41-24c-0.35,0.19-0.62,0.32-0.87,0.48c-1.96,1.22-3.91,2.45-5.87,3.66
		c-1.59,0.98-3.15,0.72-4.01-0.64c-0.87-1.38-0.45-2.92,1.11-3.91c4.07-2.56,8.14-5.11,12.22-7.65c1.66-1.03,3.12-0.69,4.16,0.96
		c2.56,4.07,5.11,8.15,7.64,12.23c0.94,1.51,0.67,3.12-0.61,3.94c-1.41,0.91-2.97,0.48-3.99-1.12c-1.41-2.22-2.79-4.46-4.29-6.85
		c-0.24,0.66-0.43,1.18-0.62,1.7c-5.1,14.02-14.92,22.73-29.44,26.08c-4.24,0.98-8.56,1.11-12.89,0.48c-0.6-0.09-0.8,0.23-1.07,0.61
		c-2.48,3.62-5.7,6.38-9.71,8.18c-5.85,2.62-11.83,2.87-17.82,0.65C7.99,95.73,3.08,90.4,0.91,82.81
		c-3.49-12.21,3.32-25,15.37-28.71c9.14-2.81,17.3-0.74,24.1,5.98c3.84,3.79,6.01,8.51,6.5,13.92c0.15,1.61,0.13,3.25-0.01,4.85
		C46.73,80.45,46.35,82.03,46.06,83.7z M5.44,76.43c0.18,10.36,8.24,18.25,18.46,18.08c10.19-0.17,18.05-8.43,17.7-18.91
		c-0.32-9.56-8.3-17.44-18.5-17.26C13.28,58.52,5.28,66.7,5.44,76.43z"/>
	<path class="st0" d="M67.49,28.9c1.83,0.89,3.61,1.44,5.54,1.37c1.62-0.05,2.62-0.61,2.8-1.61c0.2-1.09-0.36-1.86-1.94-2.55
		c-1.19-0.52-2.43-0.93-3.59-1.49c-1.82-0.88-3.26-2.11-3.52-4.31c-0.31-2.69,1.09-5.04,3.94-5.95c1.25-0.4,1.55-0.99,1.4-2.11
		c-0.05-0.41-0.01-0.84-0.01-1.35c1.08,0,2.09,0,3.23,0c0,0.91,0,1.8,0,2.59c1.39,0.33,2.64,0.64,3.9,0.94
		c0.59,0.14,0.77,0.47,0.59,1.06c-0.28,0.93-0.51,1.87-0.73,2.69c-1.54-0.28-3.02-0.59-4.5-0.81c-0.47-0.07-0.97,0.04-1.45,0.12
		c-0.77,0.14-1.44,0.6-1.4,1.38c0.03,0.55,0.42,1.27,0.87,1.57c0.91,0.6,1.97,0.97,2.97,1.43c0.77,0.35,1.56,0.64,2.3,1.05
		c2.18,1.2,3.21,3.05,2.96,5.56c-0.23,2.25-1.52,3.74-3.49,4.68c-0.66,0.32-1.39,0.5-2.17,0.77c0,1,0,2.03,0,3.12
		c-1.1,0-2.11,0-3.24,0c0-0.69-0.05-1.34,0.01-1.98c0.07-0.79-0.24-1.03-1.02-1.14c-1.24-0.18-2.45-0.57-3.67-0.88
		c-0.63-0.16-0.8-0.52-0.6-1.16C66.99,30.94,67.21,29.96,67.49,28.9z"/>
	<path class="st0" d="M27.21,85.79c0,1.09,0,2.16,0,3.3c-1.08,0-2.1,0-3.22,0c0-1,0-1.96,0-2.97c-0.71,0-1.31,0-2.02,0
		c0,1.01,0,1.97,0,2.99c-1.09,0-2.08,0-3.17,0c0-1,0-1.96,0-3c-1.64,0-3.18,0-4.81,0c0-0.91,0-1.74,0-2.59
		c0.03-0.02,0.07-0.09,0.12-0.09c2.02-0.06,1.97-0.07,1.97-2.18c0.01-3.06,0-6.12,0-9.17c0-2.11,0-2.11-2.18-2.25
		c0-0.4,0-0.81,0-1.21c0-0.42,0-0.84,0-1.4c1.62,0,3.19,0,4.85,0c0-1.06,0-1.99,0-3c1.07,0,2.06,0,3.18,0c0,0.96,0,1.91,0,2.92
		c0.73,0,1.33,0,2.02,0c0-0.98,0-1.91,0-2.92c1.09,0,2.08,0,3.17,0c0,1.03,0,2.09,0,3.19c2.35,0.59,4.07,1.75,4.2,4.35
		c0.09,1.77-0.9,3.07-3.29,4.35c2.62,0.74,4.22,2.33,3.95,5.06C31.73,83.92,29.77,85.2,27.21,85.79z M20.91,77.59
		c0,1.7-0.02,3.25,0.02,4.8c0.01,0.2,0.32,0.55,0.49,0.55c1.26-0.01,2.54,0.02,3.77-0.19c1.19-0.19,1.97-1.37,1.97-2.57
		c0.01-1.21-0.69-2.11-2.06-2.31C23.74,77.66,22.35,77.68,20.91,77.59z M20.88,74.91c1.48-0.12,2.9-0.15,4.3-0.37
		c0.99-0.16,1.62-1.11,1.61-2.05c-0.01-0.94-0.63-1.86-1.55-1.98c-1.43-0.18-2.87-0.21-4.35-0.31
		C20.88,71.84,20.88,73.28,20.88,74.91z"/>
</g>
</svg>
