<?xml version="1.0" encoding="utf-8"?>
<!-- Generator: Adobe Illustrator 24.3.0, SVG Export Plug-In . SVG Version: 6.00 Build 0)  -->
<svg version="1.1" id="Слой_1" xmlns="http://www.w3.org/2000/svg" xmlns:xlink="http://www.w3.org/1999/xlink" x="0px" y="0px"
	 viewBox="0 0 172.88 100" style="enable-background:new 0 0 172.88 100;" xml:space="preserve">
<style type="text/css">
	.st0{fill:#4DB799;}
</style>
<g>
	<path class="st0" d="M65.77,9.61C46.23,9.6,26.69,9.64,7.15,9.54c-1.96-0.01-4.19-0.47-5.78-1.5C0.39,7.4-0.27,5.05,0.11,3.85
		c0.45-1.42,2.02-2.72,3.42-3.52c0.99-0.56,2.5-0.24,3.78-0.24C45.59,0.08,83.87,0.04,122.15,0.1c25.44,0.04,45.24,16.6,50.05,41.64
		c4.95,25.75-13.24,52.51-39.18,57.24c-21.09,3.85-37.96-3.28-50.96-20.23c-1.21-1.57-3.7-2.83-5.7-3
		c-5.09-0.42-10.24-0.11-15.36-0.16c-3.37-0.03-6.31-1.08-6.17-5.05c0.13-3.71,3-4.43,6.19-4.41c6.41,0.05,12.82,0.21,19.22-0.06
		c4.03-0.17,6.28,1.41,8.44,4.8c8.93,14.06,22.07,21.03,38.58,19.28c17.07-1.81,28.94-11.46,34.45-27.91
		c8.55-25.54-10.82-52.42-37.78-52.61C104.53,9.5,85.15,9.61,65.77,9.61z"/>
	<path class="st0" d="M52.27,22.2c8.79,0,17.58,0.04,26.37-0.02c3.52-0.02,6.7,0.55,6.68,4.88c-0.01,4.06-3.03,4.68-6.38,4.67
		c-18.06-0.03-36.12-0.05-54.17,0.01c-3.52,0.01-6.36-1.16-6.29-4.88c0.06-3.72,2.98-4.74,6.47-4.7
		C34.05,22.27,43.16,22.2,52.27,22.2z"/>
	<path class="st0" d="M127.67,34.4c-1.73,9.97,1.22,18.05,9.65,23.93c0.64,0.45,1.59,1.11,1.61,1.7c0.08,2.44,0.69,5.43-0.45,7.22
		c-1.56,2.44-4.55,1.89-6.66-0.17c-4.13-4.01-8.25-8.03-12.15-12.25c-0.95-1.03-1.46-2.83-1.48-4.28
		c-0.13-8.95-0.01-17.9-0.09-26.85c-0.03-3.58,1.31-6.14,5.03-6.18c4.07-0.05,4.72,2.93,4.59,6.34
		C127.56,27.37,127.67,30.89,127.67,34.4z"/>
	<path class="st0" d="M58.02,53.82c-4.63,0-9.26,0-13.89,0c-3.29,0-5.77-1.18-5.74-4.85c0.02-3.38,2.31-4.65,5.43-4.66
		c9.58-0.01,19.16-0.02,28.74,0.01c3.18,0.01,5.28,1.45,5.24,4.84c-0.04,3.44-2.28,4.65-5.41,4.66
		C67.6,53.83,62.81,53.82,58.02,53.82z"/>
</g>
</svg>
