<svg width="15" height="22" viewBox="0 0 15 22" fill="none" xmlns="http://www.w3.org/2000/svg">
<path d="M12.8337 8.49997V5.64664C12.8623 4.20123 12.3172 2.80333 11.3177 1.75883C10.3182 0.714327 8.94559 0.10828 7.50033 0.0733032C6.05506 0.10828 4.68249 0.714327 3.68297 1.75883C2.68344 2.80333 2.13836 4.20123 2.16699 5.64664V8.49997H0.166992V19.8333C0.166992 20.1869 0.307468 20.5261 0.557516 20.7761C0.807565 21.0262 1.1467 21.1666 1.50033 21.1666H13.5003C13.8539 21.1666 14.1931 21.0262 14.4431 20.7761C14.6932 20.5261 14.8337 20.1869 14.8337 19.8333V8.49997H12.8337ZM3.50033 5.64664C3.47158 4.5548 3.87616 3.49596 4.62567 2.70149C5.37517 1.90701 6.40866 1.44149 7.50033 1.40664C8.59199 1.44149 9.62548 1.90701 10.375 2.70149C11.1245 3.49596 11.5291 4.5548 11.5003 5.64664V8.49997H3.50033V5.64664ZM1.50033 19.8333V9.8333H13.5003V19.8333H1.50033Z" fill="#37545F"/>
</svg>
