<svg width="187" height="74" viewBox="0 0 187 74" fill="none" xmlns="http://www.w3.org/2000/svg">
<path d="M12.959 30.1892V12.2728H16.5854V27.7033H19.3426V12.2728H22.9689V27.7033H25.7261V12.2728H29.3525V30.1892H12.959Z" fill="#37545F"/>
<path d="M30.8467 30.1892L34.0235 12.2728H38.9985L42.1154 30.1892H38.2193L37.6798 26.8848H35.1025L34.593 30.1892H30.8467ZM35.1624 25.1265H37.6499L36.4211 15.3953L35.1624 25.1265Z" fill="#37545F"/>
<path d="M43.6019 30.1892V12.2728H52.3231V14.7587H47.0185V16.9717H49.6558C50.3151 16.9717 50.8946 17.0728 51.394 17.2749C51.9135 17.477 52.3231 17.8407 52.6228 18.3662C52.9425 18.8715 53.1023 19.599 53.1023 20.5489V25.4903C53.1023 26.5008 53.0124 27.3193 52.8326 27.9458C52.6528 28.5724 52.393 29.0473 52.0534 29.3707C51.7137 29.6738 51.3041 29.886 50.8246 30.0073C50.3451 30.1285 49.7957 30.1892 49.1763 30.1892H43.6019ZM48.3971 28.3703C48.7567 28.3703 49.0264 28.2995 49.2063 28.158C49.3861 28.0166 49.506 27.8044 49.5659 27.5214C49.6458 27.2385 49.6858 26.9151 49.6858 26.5513V20.8824C49.6858 20.5388 49.6458 20.2357 49.5659 19.9729C49.506 19.69 49.3861 19.4778 49.2063 19.3363C49.0264 19.1948 48.7467 19.1241 48.3671 19.1241H47.0185V28.3703H48.3971Z" fill="#37545F"/>
<path d="M54.262 30.1892V28.3703C54.6216 28.3703 54.9613 28.1479 55.281 27.7033C55.6206 27.2587 55.8104 26.713 55.8504 26.0663L56.8094 12.2728H66.3698V30.1892H62.8933V14.7587H60.226L59.3269 26.9757C59.2869 27.3395 59.247 27.7134 59.207 28.0974C59.1671 28.4612 59.0572 28.8048 58.8773 29.1281C58.7175 29.4313 58.4478 29.6839 58.0682 29.886C57.6885 30.0679 57.1591 30.169 56.4798 30.1892H54.262Z" fill="#37545F"/>
<path d="M73.3307 30.5529C72.3517 30.5529 71.4926 30.4317 70.7533 30.1892C70.0141 29.9669 69.4347 29.4919 69.0151 28.7643C68.6155 28.0166 68.4157 26.9151 68.4157 25.46V16.0622C68.4157 14.9911 68.6155 14.1625 69.0151 13.5764C69.4347 12.9903 70.0141 12.5861 70.7533 12.3638C71.5126 12.1213 72.3817 12 73.3607 12C74.3197 12 75.1689 12.1213 75.9081 12.3638C76.6674 12.6063 77.2568 13.0206 77.6763 13.6067C78.1159 14.1928 78.3357 15.0113 78.3357 16.0622V25.4297C78.3357 26.905 78.1159 28.0166 77.6763 28.7643C77.2568 29.4919 76.6674 29.9669 75.9081 30.1892C75.1689 30.4317 74.3097 30.5529 73.3307 30.5529ZM73.3307 28.4915C73.6304 28.4915 73.8902 28.441 74.1099 28.3399C74.3497 28.2389 74.5295 28.0671 74.6494 27.8246C74.7892 27.5618 74.8592 27.2082 74.8592 26.7635V15.9107C74.8592 15.466 74.7892 15.1225 74.6494 14.88C74.5295 14.6172 74.3497 14.4353 74.1099 14.3343C73.8902 14.2332 73.6304 14.1827 73.3307 14.1827C73.031 14.1827 72.7713 14.2332 72.5515 14.3343C72.3317 14.4353 72.1519 14.6172 72.0121 14.88C71.8922 15.1225 71.8322 15.466 71.8322 15.9107V26.7635C71.8322 27.2082 71.8922 27.5618 72.0121 27.8246C72.1519 28.0671 72.3317 28.2389 72.5515 28.3399C72.7713 28.441 73.031 28.4915 73.3307 28.4915Z" fill="#37545F"/>
<path d="M80.6543 30.1892V12.2728H84.1308V19.6091H87.0379V12.2728H90.5144V30.1892H87.0379V22.2162H84.1308V30.1892H80.6543Z" fill="#37545F"/>
<path d="M93.0344 30.1892V12.2728H96.0913V23.156L99.7776 12.2728H102.835V30.1892H99.7476V20.0335L96.0913 30.1892H93.0344Z" fill="#37545F"/>
<path d="M109.702 30.4014C108.543 30.4014 107.584 30.2296 106.825 29.886C106.066 29.5222 105.507 29.017 105.147 28.3703C104.787 27.7033 104.607 26.905 104.607 25.9753V23.9139H108.084V25.0356C108.084 25.945 108.204 26.6423 108.444 27.1273C108.683 27.6124 109.083 27.865 109.642 27.8852C110.162 27.8852 110.541 27.673 110.781 27.2486C111.041 26.8242 111.171 26.2785 111.171 25.6116V23.8836C111.171 23.2167 110.951 22.7417 110.511 22.4588C110.072 22.1758 109.423 22.0243 108.563 22.004H107.155V20.0639H108.593C108.993 20.0639 109.353 20.0133 109.672 19.9123C109.992 19.8112 110.262 19.6698 110.481 19.4879C110.721 19.2858 110.891 19.0736 110.991 18.8513C111.091 18.6087 111.141 18.3561 111.141 18.0934V16.8504C111.141 16.2643 111.031 15.7591 110.811 15.3347C110.591 14.9103 110.202 14.6981 109.642 14.6981C109.063 14.6981 108.663 14.9406 108.444 15.4256C108.244 15.9107 108.144 16.5776 108.144 17.4264V18.154H104.637V16.4867C104.637 15.0719 105.047 14.0008 105.866 13.2732C106.705 12.5457 107.984 12.1819 109.702 12.1819C111.5 12.1819 112.789 12.5154 113.568 13.1823C114.368 13.8492 114.767 14.8496 114.767 16.1835V17.5477C114.767 18.5784 114.507 19.407 113.988 20.0335C113.488 20.6601 112.749 21.034 111.77 21.1552C112.749 21.2158 113.498 21.5594 114.018 22.1859C114.537 22.8124 114.797 23.6411 114.797 24.6718V25.9753C114.797 26.9859 114.627 27.8246 114.288 28.4915C113.948 29.1382 113.399 29.6233 112.639 29.9466C111.9 30.2498 110.921 30.4014 109.702 30.4014Z" fill="#37545F"/>
<path d="M115.693 30.1892L118.869 12.2728H123.844L126.961 30.1892H123.065L122.526 26.8848H119.948L119.439 30.1892H115.693ZM120.008 25.1265H122.496L121.267 15.3953L120.008 25.1265Z" fill="#37545F"/>
<path d="M130.216 30.1892V14.7587H127.459V12.2728H136.45V14.7587H133.693V30.1892H130.216Z" fill="#37545F"/>
<path d="M142.694 30.5529C141.715 30.5529 140.856 30.4317 140.117 30.1892C139.378 29.9669 138.798 29.4919 138.379 28.7643C137.979 28.0166 137.779 26.9151 137.779 25.46V16.0622C137.779 14.9911 137.979 14.1625 138.379 13.5764C138.798 12.9903 139.378 12.5861 140.117 12.3638C140.876 12.1213 141.745 12 142.724 12C143.683 12 144.532 12.1213 145.272 12.3638C146.031 12.6063 146.62 13.0206 147.04 13.6067C147.479 14.1928 147.699 15.0113 147.699 16.0622V25.4297C147.699 26.905 147.479 28.0166 147.04 28.7643C146.62 29.4919 146.031 29.9669 145.272 30.1892C144.532 30.4317 143.673 30.5529 142.694 30.5529ZM142.694 28.4915C142.994 28.4915 143.254 28.441 143.473 28.3399C143.713 28.2389 143.893 28.0671 144.013 27.8246C144.153 27.5618 144.223 27.2082 144.223 26.7635V15.9107C144.223 15.466 144.153 15.1225 144.013 14.88C143.893 14.6172 143.713 14.4353 143.473 14.3343C143.254 14.2332 142.994 14.1827 142.694 14.1827C142.395 14.1827 142.135 14.2332 141.915 14.3343C141.695 14.4353 141.515 14.6172 141.376 14.88C141.256 15.1225 141.196 15.466 141.196 15.9107V26.7635C141.196 27.2082 141.256 27.5618 141.376 27.8246C141.515 28.0671 141.695 28.2389 141.915 28.3399C142.135 28.441 142.395 28.4915 142.694 28.4915Z" fill="#37545F"/>
<path d="M150.018 30.1892V12.2728H156.312C157.49 12.2728 158.379 12.5457 158.979 13.0914C159.598 13.6168 159.908 14.3545 159.908 15.3044V18.3965C159.908 19.2049 159.808 19.9628 159.608 20.6702C159.408 21.3573 159.049 21.9131 158.529 22.3375C158.01 22.7619 157.261 22.9741 156.282 22.9741H153.644V30.1892H150.018ZM153.644 21.034H154.993C155.472 21.034 155.832 20.8015 156.072 20.3367C156.312 19.8719 156.431 19.1039 156.431 18.0327V16.8201C156.431 15.8703 156.332 15.1932 156.132 14.789C155.932 14.3848 155.642 14.1827 155.263 14.1827H153.644V21.034Z" fill="#37545F"/>
<path d="M14.8172 58.4834V45.9632H12V43.4774H21.1408V45.9632H18.2936V58.4834H14.8172Z" fill="#37545F"/>
<path d="M27.0514 58.7259C26.0124 58.7259 25.1333 58.6148 24.414 58.3925C23.7147 58.15 23.1853 57.6851 22.8256 56.998C22.466 56.2906 22.2862 55.2296 22.2862 53.8149V47.0546C22.2862 45.5792 22.6758 44.5687 23.455 44.023C24.2342 43.4774 25.413 43.2045 26.9914 43.2045C28.5498 43.2045 29.7187 43.4774 30.4979 44.023C31.2771 44.5687 31.6667 45.5792 31.6667 47.0546V51.1471H25.7027V55.2397C25.7027 55.846 25.7926 56.2704 25.9725 56.5129C26.1722 56.7555 26.5219 56.8767 27.0214 56.8767C27.4809 56.8767 27.7906 56.7656 27.9505 56.5433C28.1303 56.3007 28.2202 55.8662 28.2202 55.2397V52.8448H31.6667V53.7846C31.6667 55.1993 31.4869 56.2603 31.1272 56.9677C30.7676 57.675 30.2381 58.15 29.5389 58.3925C28.8595 58.6148 28.0304 58.7259 27.0514 58.7259ZM25.7027 49.5707H28.2202V46.8727C28.2202 46.2866 28.1303 45.8723 27.9505 45.6297C27.7906 45.3872 27.4709 45.266 26.9914 45.266C26.5119 45.266 26.1722 45.3872 25.9725 45.6297C25.7926 45.8723 25.7027 46.2866 25.7027 46.8727V49.5707Z" fill="#37545F"/>
<path d="M36.1685 58.7259C35.649 58.7259 35.1595 58.6552 34.7 58.5137C34.2604 58.3723 33.8908 58.0792 33.5911 57.6346C33.3114 57.1698 33.1715 56.4927 33.1715 55.6035V53.6027C33.1715 52.6528 33.4412 51.8848 33.9807 51.2987C34.5401 50.6924 35.4092 50.177 36.5881 49.7526C37.2074 49.4899 37.6969 49.2575 38.0566 49.0554C38.4162 48.8533 38.676 48.6108 38.8358 48.3278C38.9956 48.0247 39.0755 47.6205 39.0755 47.1152V46.2967C39.0755 45.9733 39.0256 45.7308 38.9257 45.5691C38.8258 45.3872 38.676 45.2559 38.4762 45.175C38.2963 45.0942 38.0865 45.0538 37.8468 45.0538C37.3273 45.0538 36.9877 45.2356 36.8278 45.5994C36.668 45.943 36.5881 46.5291 36.5881 47.3577V48.631H33.5012V47.0243C33.5012 46.2765 33.6011 45.6196 33.8009 45.0538C34.0207 44.4677 34.4402 44.0129 35.0596 43.6896C35.679 43.346 36.608 43.1742 37.8468 43.1742C39.1055 43.1742 40.0745 43.2955 40.7539 43.538C41.4332 43.7603 41.9027 44.1241 42.1624 44.6293C42.4222 45.1144 42.552 45.7813 42.552 46.6302V58.4834H39.1355V56.8161C38.9757 57.4022 38.606 57.867 38.0266 58.2106C37.4672 58.5542 36.8478 58.7259 36.1685 58.7259ZM37.637 56.4523C38.1765 56.4523 38.5461 56.2502 38.7459 55.846C38.9657 55.4216 39.0755 54.8355 39.0755 54.0877V50.2377C38.9557 50.4398 38.7559 50.6217 38.4762 50.7833C38.1964 50.9248 37.9167 51.0865 37.637 51.2684C37.2574 51.5311 36.9677 51.804 36.7679 52.0869C36.5681 52.3496 36.4682 52.7235 36.4682 53.2086V54.7546C36.4682 55.1791 36.5181 55.5226 36.618 55.7854C36.7179 56.0279 36.8578 56.1997 37.0376 56.3007C37.2174 56.4018 37.4172 56.4523 37.637 56.4523Z" fill="#37545F"/>
<path d="M46.6015 58.4834V45.9632H43.7843V43.4774H52.9251V45.9632H50.0779V58.4834H46.6015Z" fill="#37545F"/>
<path d="M54.3102 62V43.4774H57.6968V44.6597C57.8966 44.3161 58.1763 43.9927 58.536 43.6896C58.8956 43.3864 59.485 43.2348 60.3042 43.2348C61.0035 43.2348 61.6029 43.3561 62.1024 43.5986C62.6019 43.8209 62.9915 44.1948 63.2712 44.7203C63.5509 45.2255 63.6908 45.9228 63.6908 46.812V54.0877C63.6908 55.1993 63.5709 56.0986 63.3311 56.7858C63.0914 57.4527 62.7217 57.9378 62.2222 58.2409C61.7228 58.5238 61.0834 58.6653 60.3042 58.6653C59.6049 58.6653 59.0455 58.5441 58.6259 58.3015C58.2263 58.0388 57.9266 57.7458 57.7268 57.4224V62H54.3102ZM59.0155 56.7251C59.3152 56.7251 59.545 56.6847 59.7048 56.6039C59.8646 56.5028 59.9845 56.3715 60.0644 56.2098C60.1643 56.0481 60.2243 55.8662 60.2442 55.6641C60.2642 55.4418 60.2742 55.1993 60.2742 54.9365V47.1758C60.2742 46.9131 60.2642 46.6706 60.2442 46.4483C60.2243 46.2259 60.1643 46.034 60.0644 45.8723C59.9845 45.7106 59.8646 45.5893 59.7048 45.5085C59.545 45.4276 59.3152 45.3872 59.0155 45.3872C58.7358 45.3872 58.506 45.4377 58.3262 45.5388C58.1663 45.6196 58.0365 45.7409 57.9366 45.9026C57.8567 46.0441 57.7967 46.2057 57.7568 46.3876C57.7368 46.5695 57.7268 46.7312 57.7268 46.8727V55.0275C57.7268 55.3711 57.7568 55.6742 57.8167 55.9369C57.8966 56.1997 58.0265 56.4018 58.2063 56.5433C58.3861 56.6645 58.6558 56.7251 59.0155 56.7251Z" fill="#37545F"/>
<path d="M68.3625 58.7259C67.8431 58.7259 67.3536 58.6552 66.894 58.5137C66.4545 58.3723 66.0848 58.0792 65.7851 57.6346C65.5054 57.1698 65.3656 56.4927 65.3656 55.6035V53.6027C65.3656 52.6528 65.6353 51.8848 66.1747 51.2987C66.7342 50.6924 67.6033 50.177 68.7821 49.7526C69.4015 49.4899 69.891 49.2575 70.2506 49.0554C70.6103 48.8533 70.87 48.6108 71.0298 48.3278C71.1897 48.0247 71.2696 47.6205 71.2696 47.1152V46.2967C71.2696 45.9733 71.2197 45.7308 71.1198 45.5691C71.0199 45.3872 70.87 45.2559 70.6702 45.175C70.4904 45.0942 70.2806 45.0538 70.0408 45.0538C69.5214 45.0538 69.1817 45.2356 69.0219 45.5994C68.862 45.943 68.7821 46.5291 68.7821 47.3577V48.631H65.6952V47.0243C65.6952 46.2765 65.7951 45.6196 65.9949 45.0538C66.2147 44.4677 66.6343 44.0129 67.2537 43.6896C67.873 43.346 68.8021 43.1742 70.0408 43.1742C71.2996 43.1742 72.2686 43.2955 72.9479 43.538C73.6272 43.7603 74.0967 44.1241 74.3565 44.6293C74.6162 45.1144 74.7461 45.7813 74.7461 46.6302V58.4834H71.3295V56.8161C71.1697 57.4022 70.8001 57.867 70.2207 58.2106C69.6612 58.5542 69.0418 58.7259 68.3625 58.7259ZM69.8311 56.4523C70.3705 56.4523 70.7401 56.2502 70.9399 55.846C71.1597 55.4216 71.2696 54.8355 71.2696 54.0877V50.2377C71.1497 50.4398 70.9499 50.6217 70.6702 50.7833C70.3905 50.9248 70.1108 51.0865 69.8311 51.2684C69.4514 51.5311 69.1617 51.804 68.9619 52.0869C68.7621 52.3496 68.6622 52.7235 68.6622 53.2086V54.7546C68.6622 55.1791 68.7122 55.5226 68.8121 55.7854C68.912 56.0279 69.0518 56.1997 69.2317 56.3007C69.4115 56.4018 69.6113 56.4523 69.8311 56.4523Z" fill="#37545F"/>
<path d="M86.708 58.8472C85.729 58.8472 84.8599 58.7259 84.1006 58.4834C83.3614 58.2611 82.772 57.7862 82.3324 57.0586C81.9128 56.3108 81.703 55.2094 81.703 53.7542V44.3565C81.703 43.2854 81.9128 42.4567 82.3324 41.8707C82.772 41.2846 83.3714 40.8804 84.1306 40.658C84.8898 40.4155 85.7589 40.2943 86.738 40.2943C87.737 40.2943 88.5961 40.4155 89.3154 40.658C90.0546 40.9006 90.624 41.3149 91.0236 41.901C91.4232 42.4871 91.623 43.3056 91.623 44.3565V48.055H88.1465V44.2049C88.1465 43.7199 88.0866 43.3561 87.9667 43.1136C87.8468 42.8508 87.677 42.6791 87.4572 42.5982C87.2574 42.5174 87.0177 42.477 86.738 42.477C86.4582 42.477 86.2085 42.5174 85.9887 42.5982C85.7689 42.6791 85.5991 42.8508 85.4792 43.1136C85.3594 43.3561 85.2994 43.7199 85.2994 44.2049V55.0578C85.2994 55.5226 85.3594 55.8864 85.4792 56.1491C85.5991 56.3917 85.7689 56.5635 85.9887 56.6645C86.2085 56.7453 86.4582 56.7858 86.738 56.7858C87.0177 56.7858 87.2574 56.7453 87.4572 56.6645C87.677 56.5635 87.8468 56.3917 87.9667 56.1491C88.0866 55.8864 88.1465 55.5226 88.1465 55.0578V51.5109H91.623V53.7239C91.623 55.1993 91.4232 56.3108 91.0236 57.0586C90.624 57.7862 90.0546 58.2611 89.3154 58.4834C88.5961 58.7259 87.727 58.8472 86.708 58.8472Z" fill="#37545F"/>
<path d="M96.3421 58.7259C95.8226 58.7259 95.3331 58.6552 94.8736 58.5137C94.434 58.3723 94.0644 58.0792 93.7647 57.6346C93.485 57.1698 93.3451 56.4927 93.3451 55.6035V53.6027C93.3451 52.6528 93.6148 51.8848 94.1543 51.2987C94.7137 50.6924 95.5829 50.177 96.7617 49.7526C97.381 49.4899 97.8706 49.2575 98.2302 49.0554C98.5898 48.8533 98.8496 48.6108 99.0094 48.3278C99.1692 48.0247 99.2492 47.6205 99.2492 47.1152V46.2967C99.2492 45.9733 99.1992 45.7308 99.0993 45.5691C98.9994 45.3872 98.8496 45.2559 98.6498 45.175C98.4699 45.0942 98.2602 45.0538 98.0204 45.0538C97.5009 45.0538 97.1613 45.2356 97.0014 45.5994C96.8416 45.943 96.7617 46.5291 96.7617 47.3577V48.631H93.6748V47.0243C93.6748 46.2765 93.7747 45.6196 93.9745 45.0538C94.1943 44.4677 94.6138 44.0129 95.2332 43.6896C95.8526 43.346 96.7817 43.1742 98.0204 43.1742C99.2791 43.1742 100.248 43.2955 100.927 43.538C101.607 43.7603 102.076 44.1241 102.336 44.6293C102.596 45.1144 102.726 45.7813 102.726 46.6302V58.4834H99.3091V56.8161C99.1493 57.4022 98.7796 57.867 98.2002 58.2106C97.6408 58.5542 97.0214 58.7259 96.3421 58.7259ZM97.8106 56.4523C98.3501 56.4523 98.7197 56.2502 98.9195 55.846C99.1393 55.4216 99.2492 54.8355 99.2492 54.0877V50.2377C99.1293 50.4398 98.9295 50.6217 98.6498 50.7833C98.37 50.9248 98.0903 51.0865 97.8106 51.2684C97.431 51.5311 97.1413 51.804 96.9415 52.0869C96.7417 52.3496 96.6418 52.7235 96.6418 53.2086V54.7546C96.6418 55.1791 96.6917 55.5226 96.7916 55.7854C96.8915 56.0279 97.0314 56.1997 97.2112 56.3007C97.391 56.4018 97.5908 56.4523 97.8106 56.4523Z" fill="#37545F"/>
<path d="M106.775 58.4834V45.9632H103.958V43.4774H113.099V45.9632H110.252V58.4834H106.775Z" fill="#37545F"/>
<path d="M114.364 58.4834V43.4774H117.361V52.2688L120.777 43.4774H123.774V58.4834H120.777V48.8735C120.158 50.4903 119.549 52.097 118.949 53.6936C118.35 55.27 117.741 56.8666 117.121 58.4834H114.364Z" fill="#37545F"/>
<path d="M125.84 62V43.4774H129.226V44.6597C129.426 44.3161 129.706 43.9927 130.065 43.6896C130.425 43.3864 131.014 43.2348 131.834 43.2348C132.533 43.2348 133.132 43.3561 133.632 43.5986C134.131 43.8209 134.521 44.1948 134.801 44.7203C135.08 45.2255 135.22 45.9228 135.22 46.812V54.0877C135.22 55.1993 135.1 56.0986 134.86 56.7858C134.621 57.4527 134.251 57.9378 133.752 58.2409C133.252 58.5238 132.613 58.6653 131.834 58.6653C131.134 58.6653 130.575 58.5441 130.155 58.3015C129.756 58.0388 129.456 57.7458 129.256 57.4224V62H125.84ZM130.545 56.7251C130.845 56.7251 131.074 56.6847 131.234 56.6039C131.394 56.5028 131.514 56.3715 131.594 56.2098C131.694 56.0481 131.754 55.8662 131.774 55.6641C131.794 55.4418 131.804 55.1993 131.804 54.9365V47.1758C131.804 46.9131 131.794 46.6706 131.774 46.4483C131.754 46.2259 131.694 46.034 131.594 45.8723C131.514 45.7106 131.394 45.5893 131.234 45.5085C131.074 45.4276 130.845 45.3872 130.545 45.3872C130.265 45.3872 130.035 45.4377 129.856 45.5388C129.696 45.6196 129.566 45.7409 129.466 45.9026C129.386 46.0441 129.326 46.2057 129.286 46.3876C129.266 46.5695 129.256 46.7312 129.256 46.8727V55.0275C129.256 55.3711 129.286 55.6742 129.346 55.9369C129.426 56.1997 129.556 56.4018 129.736 56.5433C129.915 56.6645 130.185 56.7251 130.545 56.7251Z" fill="#37545F"/>
<path d="M137.045 58.4834V43.5077H140.461V48.1762H143.099C143.778 48.1762 144.367 48.2874 144.867 48.5097C145.386 48.7118 145.786 49.0756 146.066 49.601C146.365 50.1063 146.515 50.8238 146.515 51.7534V53.5723C146.515 54.5829 146.425 55.4115 146.245 56.0582C146.086 56.7049 145.846 57.2001 145.526 57.5437C145.206 57.8872 144.797 58.1297 144.297 58.2712C143.818 58.4127 143.248 58.4834 142.589 58.4834H137.045ZM140.461 56.6645H141.81C142.19 56.6645 142.469 56.5938 142.649 56.4523C142.829 56.3108 142.949 56.0986 143.009 55.8157C143.069 55.5327 143.099 55.2094 143.099 54.8456V52.2991C143.099 51.8747 143.069 51.521 143.009 51.2381C142.969 50.9349 142.859 50.7126 142.679 50.5711C142.499 50.4095 142.21 50.3286 141.81 50.3286H140.461V56.6645ZM148.613 58.4834V43.4774H152.03V58.4834H148.613Z" fill="#37545F"/>
<path d="M170.052 20.9127V12.2728H172.299L174.098 18.73L175.866 12.2728H178.114V20.9127H176.615V13.8795L174.667 20.9127H173.498L171.52 13.8795V20.9127H170.052ZM165.886 20.9127V13.4248H163.908V12.2728H169.303V13.4248H167.354V20.9127H165.886Z" fill="#5DBCA4"/>
</svg>
