<?xml version="1.0" encoding="utf-8"?>
<!-- Generator: Adobe Illustrator 24.3.0, SVG Export Plug-In . SVG Version: 6.00 Build 0)  -->
<svg version="1.1" id="Слой_1" xmlns="http://www.w3.org/2000/svg" xmlns:xlink="http://www.w3.org/1999/xlink" x="0px" y="0px"
	 viewBox="0 0 170 18.54" style="enable-background:new 0 0 170 18.54;" xml:space="preserve">
<style type="text/css">
	.st0{fill:#FFFFFF;}
	.st1{fill:#4DB799;}
</style>
<path class="st0" d="M10.19,0.07h0.14c2,0,3.79,0.64,5.37,1.91c0.19,0.17,0.28,0.26,0.28,0.27c-2,1.92-3.08,2.96-3.23,3.1h-0.01
	c-0.86-0.68-1.8-1.03-2.81-1.03H9.9c-0.03,0-0.06,0-0.08-0.01c-0.03,0-0.07,0.01-0.09,0.01H9.68c-0.92,0-1.87,0.3-2.84,0.91
	C6.62,5.38,6.37,5.57,6.1,5.82C5.65,6.26,5.38,6.58,5.28,6.75c-0.66,0.97-1,1.97-1,3.01v0.15c0,1.08,0.38,2.06,1.13,2.94
	c0.43,0.42,0.74,0.67,0.95,0.76c0.21,0.15,0.52,0.3,0.93,0.44c0.5,0.15,0.95,0.23,1.35,0.23h0.05c0.03,0,0.06,0,0.08,0.01
	c0.03,0,0.07-0.01,0.09-0.01H8.9c0.96,0,1.92-0.31,2.86-0.92c0.01-0.01,0.02-0.01,0.03-0.01l2.6,3.08v0.01
	c-0.47,0.35-0.87,0.61-1.19,0.79c-1.58,0.87-3.18,1.31-4.82,1.31H8.26c-2,0-3.78-0.63-5.36-1.9c-0.49-0.43-0.87-0.82-1.13-1.16
	C0.59,13.93,0,12.21,0,10.3c0-2.11,0.68-4.1,2.04-5.98c0.24-0.33,0.58-0.72,1.01-1.16c0.62-0.59,1.12-1.01,1.5-1.25
	c0.57-0.39,1.19-0.74,1.85-1.03C7.7,0.34,8.96,0.07,10.19,0.07z"/>
<path class="st0" d="M18.59,0.15h5.52c1.52,0,2.88,0.51,4.07,1.54c0.42,0.42,0.71,0.76,0.87,1.01c0.7,1.05,1.05,2.18,1.05,3.39v0.15
	c0,1.42-0.46,2.8-1.38,4.14c-0.21,0.3-0.51,0.64-0.89,1.04c-0.58,0.53-1.04,0.89-1.37,1.06c-0.27,0.17-0.52,0.31-0.73,0.41v0.01
	c2.34,3.35,3.54,5.08,3.61,5.18c0.01,0.02,0.01,0.04,0.01,0.06v0.02c0,0.05-0.04,0.08-0.12,0.09h-4.3c-0.22,0-0.41-0.15-0.57-0.46
	c-0.21-0.29-1.19-1.68-2.93-4.19h-0.19c-0.3,2.9-0.45,4.42-0.47,4.56c-0.06,0.11-0.13,0.16-0.22,0.16H16.7
	c-0.1,0-0.16-0.06-0.18-0.19l1.03-10.15c0.01-0.03,0.27-2.59,0.79-7.66C18.4,0.21,18.48,0.15,18.59,0.15z M22.25,4.27
	c0.03,0.03,0.05,0.06,0.05,0.08c-0.33,3.29-0.5,4.99-0.52,5.12h0.74c0.84,0,1.58-0.35,2.22-1.06c0.45-0.57,0.67-1.15,0.67-1.76v-0.1
	c0-0.69-0.29-1.28-0.87-1.78C24.2,4.54,24,4.43,23.92,4.43c-0.2-0.11-0.6-0.16-1.18-0.16H22.25z"/>
<path class="st0" d="M30.59,0.15h4.34c0.19,0,0.35,0.17,0.47,0.5c1.34,2.7,2.08,4.21,2.22,4.52l3.35-4.88
	c0.12-0.09,0.23-0.14,0.31-0.14h4.34c0.08,0,0.12,0.03,0.12,0.1c0,0.05-0.16,0.3-0.47,0.73c-0.09,0.14-1.83,2.68-5.21,7.61
	c-0.45,0.66-0.69,1.01-0.71,1.05c-0.54,5.27-0.83,8.12-0.88,8.53c-0.07,0.1-0.14,0.15-0.23,0.15h-3.83
	c-0.13-0.03-0.19-0.09-0.19-0.19l0.86-8.4c-2.96-6-4.48-9.08-4.57-9.25c-0.05-0.12-0.08-0.19-0.08-0.22
	C30.46,0.2,30.5,0.16,30.59,0.15z"/>
<path class="st0" d="M48.24,0.15h5.52c1.52,0,2.88,0.51,4.07,1.54c0.42,0.42,0.71,0.76,0.87,1.01c0.7,1.05,1.05,2.18,1.05,3.39v0.15
	c0,1.38-0.44,2.72-1.31,4.03c-0.18,0.29-0.5,0.66-0.95,1.13c-1.53,1.47-3.31,2.2-5.32,2.2h-1.28c-0.3,2.9-0.45,4.42-0.47,4.56
	c-0.06,0.11-0.13,0.16-0.22,0.16h-3.85c-0.1,0-0.16-0.06-0.18-0.19L47.2,7.98c0.01-0.03,0.27-2.59,0.79-7.66
	C48.04,0.21,48.12,0.15,48.24,0.15z M51.9,4.27c0.03,0.03,0.05,0.06,0.05,0.08c-0.33,3.29-0.5,4.99-0.52,5.12h0.74
	c0.84,0,1.58-0.35,2.22-1.06c0.45-0.57,0.67-1.15,0.67-1.76v-0.1c0-0.69-0.29-1.28-0.87-1.78c-0.33-0.22-0.54-0.33-0.61-0.33
	c-0.2-0.11-0.6-0.16-1.18-0.16H51.9z"/>
<path class="st0" d="M61.66,0.15h12.18c0.11,0,0.17,0.07,0.2,0.2c-0.23,2.44-0.36,3.66-0.38,3.66c-0.07,0.1-0.15,0.15-0.25,0.15
	h-3.93c-0.71,6.86-1.1,10.59-1.15,11.2c-0.18,1.74-0.29,2.67-0.31,2.81c-0.05,0.1-0.13,0.15-0.23,0.15h-3.82
	c-0.13-0.02-0.19-0.09-0.19-0.19c0.8-7.76,1.21-11.78,1.24-12.06l0.19-1.91h-3.94c-0.14-0.02-0.2-0.09-0.2-0.2
	c0.23-2.44,0.36-3.66,0.38-3.66C61.51,0.2,61.58,0.15,61.66,0.15z"/>
<path class="st0" d="M84.58,0h0.06c2.14,0,4.02,0.71,5.64,2.12c0.54,0.54,0.87,0.89,0.97,1.07c0.36,0.47,0.65,0.95,0.88,1.43
	c0.53,1.16,0.8,2.38,0.8,3.64c0,2.09-0.67,4.07-2.01,5.93c-0.26,0.34-0.61,0.76-1.07,1.24c-0.68,0.64-1.27,1.11-1.77,1.42
	c-1.73,1.09-3.52,1.63-5.38,1.63h-0.06c-2.14,0-4.02-0.71-5.64-2.12c-0.54-0.54-0.87-0.89-0.97-1.07c-0.36-0.47-0.65-0.95-0.88-1.43
	c-0.53-1.16-0.8-2.38-0.8-3.64c0-2.09,0.67-4.07,2.01-5.93c0.26-0.34,0.61-0.76,1.07-1.24c0.68-0.64,1.27-1.11,1.77-1.42
	C80.92,0.54,82.71,0,84.58,0z M84.14,4.25h-0.09c-0.87,0-1.75,0.26-2.65,0.77c-0.28,0.16-0.64,0.43-1.08,0.84
	c-0.42,0.44-0.71,0.8-0.87,1.08c-0.55,0.91-0.83,1.84-0.83,2.81c0,1.24,0.45,2.32,1.34,3.24c0.02,0.01,0.12,0.09,0.3,0.25
	c0.56,0.43,1.15,0.71,1.79,0.85c0.35,0.08,0.66,0.12,0.93,0.12h0.12c0,0,0.01,0,0.01,0.01l0.02-0.01h0.09
	c0.87,0,1.75-0.26,2.65-0.77c0.28-0.16,0.64-0.43,1.08-0.84c0.42-0.44,0.71-0.8,0.87-1.08c0.55-0.91,0.83-1.84,0.83-2.81
	c0-1.24-0.45-2.32-1.34-3.24c-0.02-0.01-0.12-0.09-0.3-0.25c-0.58-0.45-1.2-0.74-1.88-0.87c-0.32-0.06-0.61-0.09-0.84-0.09h-0.12
	c0,0-0.01,0-0.01-0.01L84.14,4.25z"/>
<path class="st1" d="M94.45,0.15h12.18c0.11,0,0.17,0.07,0.2,0.2c-0.23,2.44-0.36,3.66-0.38,3.66c-0.07,0.1-0.15,0.15-0.25,0.15
	h-3.93c-0.71,6.86-1.1,10.59-1.15,11.2c-0.18,1.74-0.29,2.67-0.31,2.81c-0.05,0.1-0.13,0.15-0.23,0.15h-3.82
	c-0.13-0.02-0.19-0.09-0.19-0.19c0.8-7.76,1.21-11.78,1.24-12.06l0.19-1.91h-3.94c-0.14-0.02-0.2-0.09-0.2-0.2
	c0.23-2.44,0.36-3.66,0.38-3.66C94.3,0.2,94.37,0.15,94.45,0.15z"/>
<path class="st1" d="M109.42,0.15h5.52c1.52,0,2.88,0.51,4.07,1.54c0.42,0.42,0.71,0.76,0.87,1.01c0.7,1.05,1.05,2.18,1.05,3.39
	v0.15c0,1.42-0.46,2.8-1.38,4.14c-0.21,0.3-0.51,0.64-0.89,1.04c-0.58,0.53-1.04,0.89-1.37,1.06c-0.27,0.17-0.52,0.31-0.73,0.41
	v0.01c2.34,3.35,3.54,5.08,3.61,5.18c0.01,0.02,0.01,0.04,0.01,0.06v0.02c0,0.05-0.04,0.08-0.12,0.09h-4.3
	c-0.22,0-0.41-0.15-0.57-0.46c-0.21-0.29-1.19-1.68-2.93-4.19h-0.19c-0.3,2.9-0.45,4.42-0.47,4.56c-0.06,0.11-0.13,0.16-0.22,0.16
	h-3.85c-0.1,0-0.16-0.06-0.18-0.19l1.03-10.15c0.01-0.03,0.27-2.59,0.79-7.66C109.22,0.21,109.3,0.15,109.42,0.15z M113.07,4.27
	c0.03,0.03,0.05,0.06,0.05,0.08c-0.33,3.29-0.5,4.99-0.52,5.12h0.74c0.84,0,1.58-0.35,2.22-1.06c0.45-0.57,0.67-1.15,0.67-1.76v-0.1
	c0-0.69-0.29-1.28-0.87-1.78c-0.33-0.22-0.54-0.33-0.61-0.33c-0.2-0.11-0.6-0.16-1.18-0.16H113.07z"/>
<path class="st1" d="M130.13,0.15h3.45c0.15,0,0.24,0.12,0.28,0.35c1.44,6.72,2.24,10.48,2.41,11.28c0.89,4.14,1.34,6.27,1.35,6.38
	c-0.02,0.11-0.07,0.16-0.16,0.16h-3.85c-0.16,0-0.26-0.16-0.3-0.47c-0.25-1.13-0.37-1.71-0.37-1.73h-5.92
	c-0.57,1.29-0.88,1.98-0.92,2.05c-0.09,0.1-0.18,0.15-0.28,0.15h-3.82c-0.09-0.01-0.13-0.05-0.13-0.12v-0.02
	c0-0.04,0.16-0.42,0.49-1.13c3.04-6.82,4.62-10.35,4.74-10.59c1.76-3.96,2.68-6.01,2.75-6.15C129.93,0.2,130.02,0.15,130.13,0.15z
	 M128.89,11.92h3.15l-1.01-4.76c-0.02,0.03-0.27,0.57-0.73,1.63L128.89,11.92z"/>
<path class="st1" d="M141.15,0.15H145c0.16,0,0.29,0.17,0.4,0.5c0.52,1.21,1.94,4.53,4.25,9.97h0.01
	c0.68-6.64,1.03-10.08,1.07-10.32c0.06-0.1,0.14-0.15,0.22-0.15h3.84c0.13,0.03,0.19,0.09,0.19,0.18
	c-0.01,0.15-0.39,3.76-1.11,10.84c-0.46,4.47-0.7,6.8-0.73,7c-0.06,0.1-0.13,0.15-0.21,0.15h-3.84c-0.09,0-0.17-0.11-0.23-0.33
	c-0.05-0.11-1.31-3.04-3.76-8.8c-0.13-0.3-0.35-0.82-0.66-1.55h-0.01c-0.69,6.79-1.05,10.3-1.08,10.52
	c-0.06,0.1-0.14,0.15-0.22,0.15h-3.84c-0.13-0.03-0.19-0.09-0.19-0.18c0.01-0.15,0.38-3.73,1.11-10.75
	c0.46-4.52,0.71-6.88,0.73-7.09C141,0.2,141.07,0.15,141.15,0.15z"/>
<path class="st1" d="M164.39,0h0.04c1.66,0,3.06,0.61,4.21,1.84c0.91,1.09,1.37,2.3,1.37,3.64V6c0,0.11-0.08,0.18-0.25,0.22h-3.72
	c-0.1,0-0.15-0.07-0.15-0.2V5.75c0-0.35-0.15-0.72-0.44-1.11c-0.4-0.44-0.89-0.65-1.48-0.65c-0.69,0-1.29,0.27-1.8,0.81
	c-0.25,0.32-0.37,0.65-0.37,0.97c0,0.87,0.76,1.56,2.27,2.06c1.36,0.45,2.35,0.89,2.98,1.33c1.1,0.77,1.64,1.83,1.64,3.18
	c0,1.23-0.54,2.47-1.61,3.73c-1.44,1.59-3.14,2.38-5.08,2.38h-0.04c-1.58,0-2.94-0.56-4.06-1.68c-0.51-0.57-0.88-1.14-1.11-1.72
	c-0.27-0.7-0.41-1.39-0.41-2.07v-0.54c0.03-0.14,0.12-0.21,0.27-0.21h3.64c0.12,0,0.19,0.09,0.2,0.27c0,0.38,0.12,0.78,0.37,1.2
	c0.36,0.5,0.88,0.76,1.54,0.76c0.68,0,1.27-0.26,1.77-0.77c0.27-0.32,0.41-0.67,0.41-1.04c0-0.66-0.49-1.24-1.48-1.73
	c-0.3-0.14-0.87-0.35-1.72-0.63c-0.79-0.3-1.44-0.61-1.96-0.94c-0.74-0.51-1.24-1.12-1.51-1.84c-0.16-0.45-0.23-0.92-0.23-1.41
	c0-1.23,0.54-2.47,1.61-3.72C160.74,0.8,162.44,0,164.39,0z"/>
</svg>
