<svg width="23" height="22" viewBox="0 0 23 22" fill="none" xmlns="http://www.w3.org/2000/svg">
<path d="M16.833 0.333313C15.3877 0.36829 14.0152 0.974337 13.0156 2.01884C12.0161 3.06334 11.471 4.46124 11.4997 5.90665V8.99998H0.833008V20.3333C0.833008 20.6869 0.973484 21.0261 1.22353 21.2761C1.47358 21.5262 1.81272 21.6666 2.16634 21.6666H14.1663C14.52 21.6666 14.8591 21.5262 15.1091 21.2761C15.3592 21.0261 15.4997 20.6869 15.4997 20.3333V8.99998H12.833V5.90665C12.8043 4.81481 13.2088 3.75597 13.9583 2.9615C14.7079 2.16702 15.7413 1.7015 16.833 1.66665C17.9247 1.7015 18.9582 2.16702 19.7077 2.9615C20.4572 3.75597 20.8617 4.81481 20.833 5.90665V10.46C20.833 10.6368 20.9032 10.8064 21.0283 10.9314C21.1533 11.0564 21.3229 11.1266 21.4997 11.1266C21.6765 11.1266 21.8461 11.0564 21.9711 10.9314C22.0961 10.8064 22.1663 10.6368 22.1663 10.46V5.90665C22.195 4.46124 21.6499 3.06334 20.6504 2.01884C19.6508 0.974337 18.2783 0.36829 16.833 0.333313ZM14.1663 10.3333V20.3333H2.16634V10.3333H14.1663Z" fill="#37545F"/>
</svg>
