<?xml version="1.0" encoding="utf-8"?>
<!-- Generator: Adobe Illustrator 24.3.0, SVG Export Plug-In . SVG Version: 6.00 Build 0)  -->
<svg version="1.1" id="Слой_1" xmlns="http://www.w3.org/2000/svg" xmlns:xlink="http://www.w3.org/1999/xlink" x="0px" y="0px"
	 viewBox="0 0 1024 1024" style="enable-background:new 0 0 1024 1024;" xml:space="preserve">
<path d="M837.12,334.72c-18.43-18.56-48.42-18.66-66.98-0.22c-0.07,0.07-0.15,0.15-0.22,0.22l-256,256l-256-256
	c-18.11-16.6-45.89-16.6-64,0c-16.91,17.98-16.91,46.02,0,64l288.64,288.64c7.26,9.18,17.83,15.15,29.44,16.64
	c12.74,0.06,24.97-5.02,33.92-14.08l288.64-288.64c19.08-17.38,20.45-46.92,3.08-66C837.47,335.09,837.29,334.91,837.12,334.72
	L837.12,334.72z"/>
</svg>
