<?xml version="1.0" encoding="utf-8"?>
<!-- Generator: Adobe Illustrator 24.3.0, SVG Export Plug-In . SVG Version: 6.00 Build 0)  -->
<svg version="1.1" id="Слой_1" xmlns="http://www.w3.org/2000/svg" xmlns:xlink="http://www.w3.org/1999/xlink" x="0px" y="0px"
	 viewBox="0 0 1024 1024" style="enable-background:new 0 0 1024 1024;" xml:space="preserve">
<style type="text/css">
	.st0{fill:#211B13;}
	.st1{fill:#FFB243;}
</style>
<path class="st0" d="M900.16,227.96c-14.78,9.5-19.14,29.14-9.76,43.99c132.35,209,70.21,485.72-138.79,618.06
	S265.9,960.23,133.55,751.23S63.34,265.51,272.34,133.17c146.01-92.46,332.19-92.67,478.41-0.55c14.93,9.45,34.7,5.01,44.15-9.92
	c9.45-14.93,5.01-34.7-9.92-44.15C545.54-71.79,229.57,0.45,79.24,239.89S1.14,795.3,240.58,945.63s555.41,78.1,705.74-161.34
	c104.98-167.21,104.45-379.89-1.37-546.57c-9.35-14.99-29.09-19.57-44.08-10.22C900.63,227.65,900.4,227.8,900.16,227.96
	L900.16,227.96z"/>
<path class="st1" d="M255.95,415.93c0,17.67,14.32,31.99,31.99,31.99h447.92c17.67-0.07,31.93-14.46,31.86-32.13
	c-0.04-8.41-3.38-16.46-9.3-22.42L630.45,265.39c-12.5-12.5-32.77-12.5-45.27,0c-12.5,12.5-12.5,32.77,0,45.27l73.43,73.27H287.95
	C270.28,383.93,255.95,398.26,255.95,415.93L255.95,415.93L255.95,415.93z M767.86,607.89c0-17.67-14.32-31.99-31.99-31.99l0,0
	H287.95c-17.67,0.07-31.93,14.46-31.86,32.13c0.04,8.41,3.38,16.46,9.3,22.42l127.98,127.98c12.5,12.5,32.77,12.5,45.27,0
	s12.5-32.77,0-45.27l0,0l-73.43-73.27h370.65C753.54,639.89,767.86,625.56,767.86,607.89L767.86,607.89z"/>
</svg>
