<?xml version="1.0" encoding="utf-8"?>
<!-- Generator: Adobe Illustrator 24.3.0, SVG Export Plug-In . SVG Version: 6.00 Build 0)  -->
<svg version="1.1" id="Layer_1" xmlns="http://www.w3.org/2000/svg" xmlns:xlink="http://www.w3.org/1999/xlink" x="0px" y="0px"
	 viewBox="0 0 24 24" style="enable-background:new 0 0 24 24;" xml:space="preserve">
<g>
	<g>
		<g>
			<path d="M16,20H4c-0.6,0-1-0.4-1-1V1c0-0.6,0.4-1,1-1h12c0.6,0,1,0.4,1,1v18C17,19.6,16.6,20,16,20z M5,18h10V2H5V18z"/>
		</g>
	</g>
	<g>
		<g>
			<path d="M20,24H8c-0.6,0-1-0.4-1-1v-4c0-0.6,0.4-1,1-1s1,0.4,1,1v3h10V6h-3c-0.6,0-1-0.4-1-1s0.4-1,1-1h4c0.6,0,1,0.4,1,1v18
				C21,23.6,20.6,24,20,24z"/>
		</g>
	</g>
</g>
</svg>
